<svg width="1328" height="130" viewBox="0 0 1328 130" fill="none" xmlns="http://www.w3.org/2000/svg">
<path d="M1303.6 14.9099V34.4099H1326.22V55.9099H1303.6V100.11H1270.4V55.9099H1247.78V34.4099H1270.4V14.9099H1303.6Z" stroke="#0461F2" stroke-width="2"/>
<path d="M1192.38 32.46C1203.36 32.46 1212.4 33.5911 1219.47 35.8887H1219.47C1226.5 38.086 1231.8 41.107 1235.25 45.0176C1238.7 48.919 1240.4 53.3617 1240.31 58.3086L1240.29 59.29H1210.7L1210.44 58.6797C1209.62 56.7366 1208.05 55.3542 1205.6 54.5615L1205.59 54.5586C1203.15 53.7482 1198.79 53.3096 1192.38 53.3096C1186.33 53.3096 1182.05 53.7893 1179.45 54.6855L1179.43 54.6914C1178.18 55.0942 1177.35 55.598 1176.83 56.1475C1176.33 56.6738 1176.09 57.2835 1176.09 58.0303C1176.09 58.5048 1176.21 58.8852 1176.42 59.2061C1176.63 59.5261 1176.96 59.8362 1177.48 60.1172C1178.7 60.6398 1181.09 61.0643 1184.78 61.3223H1184.78C1188.56 61.5799 1194.08 61.71 1201.35 61.71C1206.4 61.71 1211.32 61.8839 1216.12 62.2324H1216.11C1221.02 62.5831 1225.43 63.3295 1229.33 64.4805H1229.33C1233.35 65.6439 1236.59 67.4531 1238.99 69.9463C1241.47 72.5169 1242.65 75.9968 1242.65 80.2598C1242.65 85.5247 1240.46 89.8429 1236.15 93.1436L1236.15 93.1455C1231.99 96.3081 1226.15 98.5605 1218.7 99.9629C1211.25 101.364 1202.48 102.06 1192.38 102.06C1183.59 102.06 1176.12 101.495 1169.97 100.354L1169.97 100.353C1163.94 99.2163 1158.95 97.7221 1155.03 95.8525L1155.02 95.8486L1155.02 95.8447C1151.14 93.9066 1148.09 91.8081 1145.9 89.5322L1145.89 89.5176L1145.87 89.5029C1143.82 87.1776 1142.39 84.8486 1141.64 82.5146L1141.63 82.4922L1141.63 82.4697C1141 80.137 1140.76 78.0179 1140.95 76.1309L1141.04 75.2295H1171.27L1171.55 75.7559C1172.59 77.6823 1174.6 79.1157 1177.8 79.9395H1177.8C1181.15 80.7765 1186 81.21 1192.38 81.21C1197.31 81.21 1200.86 80.9491 1203.09 80.4541L1203.09 80.4521L1203.52 80.3564C1204.49 80.1291 1205.28 79.8769 1205.89 79.6064C1206.59 79.293 1206.99 78.9845 1207.2 78.7256L1207.22 78.7021L1207.24 78.6807C1207.89 77.9548 1208.15 77.2741 1208.15 76.6201C1208.15 76.0817 1208.01 75.6986 1207.76 75.4043C1207.51 75.0969 1207.08 74.8049 1206.38 74.584L1206.35 74.5742L1206.32 74.5615C1204.94 74.0241 1202.41 73.6764 1198.6 73.5898H1198.59L1198.58 73.5889C1194.79 73.4165 1189.56 73.3301 1182.89 73.3301C1176.54 73.3301 1170.83 73.0692 1165.76 72.5449L1165.74 72.543C1160.75 71.9304 1156.47 71.0073 1152.92 69.7637L1152.91 69.7598L1152.9 69.7559C1149.31 68.4103 1146.5 66.544 1144.54 64.1182C1142.56 61.6582 1141.59 58.6087 1141.59 55.04C1141.59 50.6478 1143.02 46.9284 1145.89 43.9551C1148.71 40.954 1152.5 38.6685 1157.21 37.0684C1161.88 35.3908 1167.25 34.207 1173.29 33.5068H1173.29C1179.4 32.8089 1185.76 32.46 1192.38 32.46Z" stroke="#0461F2" stroke-width="2"/>
<path d="M1129.65 34.4102V100.11H1096.45V34.4102H1129.65ZM1130.56 1V22.5H1095.54V1H1130.56Z" stroke="#0461F2" stroke-width="2"/>
<path d="M1087.82 32.46V50.7949L1086.87 50.8389C1081.17 51.1017 1075.39 50.8384 1069.53 50.0508L1069.52 50.0498L1069.51 50.0488C1068.82 49.9436 1068.13 49.8336 1067.45 49.7207C1069.52 51.1907 1071.3 52.8388 1072.78 54.6719C1075.1 57.5509 1076.25 60.9844 1076.25 64.9199C1076.25 70.5522 1074.29 75.3967 1070.38 79.3984C1066.55 83.3114 1060.59 86.2338 1052.62 88.249L1052.61 88.251C1044.7 90.1842 1034.43 91.1396 1021.82 91.1396C1014.54 91.1396 1009.59 91.5335 1006.87 92.2744L1006.85 92.2822C1005.52 92.6041 1004.64 93.0705 1004.1 93.6094C1003.59 94.1225 1003.32 94.7607 1003.32 95.5996C1003.32 96.0458 1003.42 96.3895 1003.59 96.666C1003.76 96.9405 1004.04 97.203 1004.46 97.4365C1005.41 97.8629 1006.75 98.1103 1008.56 98.1104H1046.91C1054.99 98.1104 1061.51 98.644 1066.46 99.7334L1067.43 99.959L1067.45 99.9629C1072.52 101.297 1076.24 103.518 1078.42 106.734L1078.62 107.043C1080.71 110.262 1081.71 114.495 1081.71 119.65V128.06H1048.51V123.55C1048.51 122.395 1048.25 121.587 1047.83 121.03C1047.42 120.484 1046.78 120.069 1045.79 119.848C1043.64 119.436 1040.13 119.22 1035.21 119.22H998.942C992.751 119.22 987.685 118.785 983.77 117.896L983.765 117.894C979.97 117.011 976.963 115.8 974.817 114.214L974.808 114.208L974.8 114.201C972.782 112.642 971.349 110.855 970.577 108.826L970.572 108.813L970.568 108.801C969.926 106.968 969.601 105.122 969.601 103.27C969.601 99.2557 971.115 96.0444 974.162 93.7598C977.131 91.4466 981.57 89.8976 987.352 89.0215C988.911 88.7852 990.583 88.5813 992.367 88.4092C991.959 88.3148 991.556 88.2194 991.159 88.1201L991.149 88.1172C983.075 86.0109 976.982 82.8656 972.992 78.6035L972.984 78.5957C968.983 74.2313 967.002 68.7816 967.001 62.3203C967.001 56.2783 968.949 51.0147 972.84 46.5801C976.733 42.0576 982.731 38.6019 990.717 36.1445L990.72 36.1436C998.823 33.6775 1009.2 32.46 1021.82 32.46H1087.82ZM1021.82 53.3096C1016.14 53.3096 1011.59 53.7409 1008.15 54.5811C1004.67 55.4291 1002.26 56.5874 1000.8 57.9756C999.342 59.3567 998.641 60.9619 998.641 62.8398C998.641 64.4365 999.282 65.9231 1000.68 67.3252C1002.16 68.716 1004.57 69.9121 1008.04 70.8438H1008.04C1011.48 71.6804 1016.07 72.1104 1021.82 72.1104C1027.49 72.1103 1031.99 71.6795 1035.34 70.8438C1038.83 69.909 1041.19 68.7118 1042.56 67.333C1043.97 65.9286 1044.61 64.4393 1044.61 62.8398C1044.61 60.9438 1043.94 59.3333 1042.56 57.957C1041.19 56.5817 1038.88 55.4273 1035.49 54.5801C1032.14 53.7417 1027.59 53.3096 1021.82 53.3096Z" stroke="#0461F2" stroke-width="2"/>
<path d="M897.72 32.46C911.457 32.46 922.898 33.6323 932.02 35.999C941.238 38.2815 948.246 41.9955 952.929 47.2158L953.364 47.7041C957.78 52.8 959.951 59.3924 959.951 67.3896C959.951 75.6449 957.637 82.403 952.929 87.5635C948.246 92.6969 941.239 96.3669 932.022 98.6494C922.902 100.929 911.46 102.06 897.72 102.06C883.893 102.06 872.323 100.93 863.032 98.6514L863.03 98.6504C853.812 96.3679 846.765 92.699 841.998 87.5713L841.992 87.5635C837.284 82.4029 834.97 75.645 834.97 67.3896C834.97 59.1344 837.284 52.3763 841.992 47.2158L842.446 46.7305C847.203 41.7668 854.096 38.2111 863.03 35.999C872.323 33.6326 883.894 32.46 897.72 32.46ZM897.72 53.3096C891.362 53.3096 885.989 53.8675 881.586 54.9678L881.587 54.9688C877.271 56.069 874.069 57.6959 871.894 59.79L871.893 59.791C869.853 61.7527 868.82 64.2574 868.82 67.3896C868.82 70.4268 869.848 72.9424 871.906 75.001C873.99 76.9994 877.143 78.5806 881.458 79.6807C885.864 80.6948 891.279 81.21 897.72 81.21C904.084 81.21 909.371 80.6926 913.602 79.6777C917.826 78.5777 920.936 76.9961 923.021 74.9932C925.074 72.9359 926.1 70.4234 926.1 67.3896C926.1 64.3518 925.072 61.8361 923.013 59.7773L923.006 59.7705L923 59.7627C921.005 57.6882 917.946 56.067 913.718 54.9678C909.495 53.8698 904.17 53.3096 897.72 53.3096Z" stroke="#0461F2" stroke-width="2"/>
<path d="M824.575 8.40991V100.11H791.375V8.40991H824.575Z" stroke="#0461F2" stroke-width="2"/>
<path d="M718.843 32.46C732.58 32.46 744.021 33.6323 753.143 35.999C762.361 38.2815 769.369 41.9955 774.052 47.2158L774.487 47.7041C778.903 52.8 781.074 59.3924 781.074 67.3896C781.074 75.6449 778.76 82.403 774.052 87.5635C769.369 92.6969 762.362 96.3669 753.145 98.6494C744.025 100.929 732.583 102.06 718.843 102.06C705.016 102.06 693.446 100.93 684.155 98.6514L684.153 98.6504C674.935 96.3679 667.888 92.699 663.121 87.5713L663.115 87.5635C658.407 82.4029 656.093 75.645 656.093 67.3896C656.093 59.1344 658.407 52.3763 663.115 47.2158L663.569 46.7305C668.326 41.7668 675.219 38.2111 684.153 35.999C693.446 33.6326 705.017 32.46 718.843 32.46ZM718.843 53.3096C712.485 53.3096 707.112 53.8675 702.709 54.9678L702.71 54.9688C698.394 56.069 695.192 57.6959 693.017 59.79L693.016 59.791C690.976 61.7527 689.943 64.2574 689.943 67.3896C689.943 70.4268 690.971 72.9424 693.029 75.001C695.113 76.9994 698.266 78.5806 702.582 79.6807C706.987 80.6948 712.402 81.21 718.843 81.21C725.207 81.21 730.494 80.6926 734.725 79.6777C738.949 78.5777 742.059 76.9961 744.144 74.9932C746.197 72.9359 747.223 70.4234 747.223 67.3896C747.223 64.3518 746.195 61.8361 744.136 59.7773L744.129 59.7705L744.123 59.7627C742.128 57.6882 739.069 56.067 734.841 54.9678C730.618 53.8698 725.293 53.3096 718.843 53.3096Z" stroke="#0461F2" stroke-width="2"/>
<path d="M606.647 32.46C611.829 32.46 616.84 33.0304 621.68 34.1729C626.566 35.2389 630.937 37.1092 634.779 39.79H634.778C638.741 42.4942 641.881 46.1807 644.202 50.8223C646.545 55.5084 647.687 61.3509 647.688 68.2998V100.11H614.487V72.2002C614.487 65.8472 612.835 61.6198 609.795 59.2031L609.783 59.1934C606.691 56.6565 600.895 55.2598 592.088 55.2598C587.483 55.2598 583.009 55.7712 578.667 56.793C574.38 57.8221 570.535 59.0631 567.129 60.5107L567.119 60.5146L567.108 60.5186C564.615 61.516 562.532 62.5046 560.848 63.4795V100.11H527.647V34.4102H560.848V51.9199C560.893 51.8558 560.939 51.7912 560.985 51.7266L560.988 51.7217C563.147 48.7539 566.221 45.824 570.176 42.9238C574.178 39.9889 579.173 37.5202 585.137 35.5029L585.142 35.501C591.248 33.4655 598.423 32.46 606.647 32.46Z" stroke="#0461F2" stroke-width="2"/>
<path d="M431.132 8.40991V51.9099C431.184 51.8413 431.235 51.7712 431.288 51.7019L431.291 51.698C433.447 48.9138 436.514 46.0772 440.46 43.1833C444.463 40.161 449.458 37.6494 455.421 35.6326C461.53 33.5088 468.707 32.4597 476.932 32.4597C482.107 32.4597 487.114 32.942 491.948 33.9089C496.805 34.8804 501.155 36.5185 504.985 38.8308L505.719 39.2625C509.338 41.468 512.251 44.3904 514.447 48.0222C516.818 51.9423 517.972 56.7701 517.972 62.45V100.11H484.771V75.45C484.771 71.6819 484.018 68.5718 482.566 66.072C481.168 63.663 478.637 61.7915 474.802 60.5408L474.789 60.5369L474.776 60.532C471.035 59.2018 465.622 58.5095 458.472 58.5095C454.463 58.5095 450.542 58.8941 446.708 59.6609L446.699 59.6619L446.69 59.6638C442.919 60.3496 439.501 61.2037 436.435 62.2253L436.436 62.2263C434.366 62.936 432.601 63.6413 431.132 64.3367V100.11H397.932V8.40991H431.132Z" stroke="#0461F2" stroke-width="2"/>
<path d="M330.143 32.46C343.623 32.46 354.602 33.6323 363.044 36.0068C371.468 38.376 377.779 41.8314 381.853 46.4482C385.918 51.0557 387.994 56.5754 388.083 62.9561L388.097 63.9697H357.813L357.558 63.3496C356.315 60.3196 353.476 57.8706 348.772 56.1064L348.765 56.1035L348.757 56.1006C344.063 54.2566 337.874 53.3096 330.143 53.3096C323.863 53.3096 318.43 53.7833 313.833 54.7197L313.815 54.7236C309.247 55.5696 305.791 57.0312 303.366 59.0469C301.112 60.9896 299.943 63.7245 299.943 67.3896C299.943 70.9603 301.108 73.6552 303.367 75.6025C305.7 77.6138 309.108 79.0792 313.685 79.9268C318.288 80.7792 323.771 81.21 330.143 81.21C337.873 81.21 344.065 80.3069 348.763 78.5469C353.555 76.6975 356.439 74.1647 357.685 71.0488L357.936 70.4199H388.213V71.4199C388.213 77.888 386.184 83.4573 382.113 88.0713C378.037 92.6903 371.68 96.1452 363.171 98.5137C354.644 100.887 343.624 102.06 330.143 102.06C316.661 102.06 305.142 100.973 295.6 98.7842H295.598C286.122 96.5906 278.78 92.9704 273.667 87.8574L273.66 87.8506C268.589 82.6889 266.093 75.832 266.093 67.3896C266.093 58.9473 268.589 52.0903 273.66 46.9287C278.613 41.8882 285.661 38.2912 294.715 36.0762L295.598 35.8652C305.142 33.5895 316.662 32.46 330.143 32.46Z" stroke="#0461F2" stroke-width="2"/>
<path d="M201.295 32.46C214.518 32.46 225.407 33.6336 233.933 36.0068C242.484 38.387 248.898 42.2971 253.053 47.8076H253.052C257.216 53.2424 259.151 60.5507 258.975 69.6191L258.956 70.5996H170.874C171.408 72.17 172.399 73.6712 173.891 75.1025L174.263 75.4297C176.185 77.0454 179.056 78.435 182.957 79.5518C187.173 80.6482 192.842 81.2099 199.995 81.21C207.41 81.21 213.442 80.6918 218.112 79.6729L218.116 79.6719C220.497 79.1616 222.344 78.5559 223.69 77.873C225.045 77.1854 225.798 76.4674 226.14 75.7832L226.417 75.2295H258.882L258.704 76.3828C257.884 81.6641 255.239 86.2418 250.841 90.1035L250.842 90.1045C246.519 93.9775 240.24 96.9361 232.095 99.0381L232.087 99.04C224.006 101.06 213.733 102.06 201.295 102.06C188.16 102.06 176.774 101.016 167.152 98.917H167.15C157.586 96.8111 150.117 93.2358 144.831 88.1289C139.487 82.9663 136.855 76.014 136.855 67.3896C136.855 58.8589 139.395 51.9556 144.558 46.793C149.758 41.5935 157.186 37.9293 166.751 35.7354C176.293 33.5468 187.813 32.46 201.295 32.46ZM199.995 53.3096C190.859 53.3096 183.994 54.3033 179.32 56.2217C176.975 57.2025 175.151 58.1675 173.825 59.1064C173.251 59.5124 172.787 59.9061 172.416 60.2803H226.121C225.175 58.8953 223.237 57.4715 220.011 56.0889L220.003 56.0859L219.996 56.082C215.952 54.2665 209.328 53.3096 199.995 53.3096Z" stroke="#0461F2" stroke-width="2"/>
<path d="M138.2 14.9099V41.6101H86.8496V100.11H52.3496V41.6101H1V14.9099H138.2Z" stroke="#0461F2" stroke-width="2"/>
</svg>
